<svg xmlns="http://www.w3.org/2000/svg" viewBox="0 0 70.16 115.41"><g id="Layer_2" data-name="Layer 2"><g id="OBJECTS"><path d="M70,55.1a2.51,2.51,0,0,1,0-2,8.3,8.3,0,0,0,.15-2c.12-3.09-.19-6.16-.24-9.24a57.33,57.33,0,0,0-.4-6.42c-.59-4.62-1.09-9.25-2.94-13.61a8.57,8.57,0,0,1-.57-2.51,27.64,27.64,0,0,0-.43-4.36A.86.86,0,0,1,66,13.85c1.25-.57,1.06-1.54.89-2.62A5.45,5.45,0,0,0,64.63,7.6L59.54,3.68A4,4,0,0,0,58,2.85a.58.58,0,0,0-.67.26c-.13.24-.11.61.12.67,1.5.37,2.15,1.57,2.83,2.76.24.43.83.71.68,1.31s-.62.55-1,.78a.53.53,0,0,0-.13.86c.37.51.1.81-.37,1-1.13.35-2.13.17-2.46-.76a3.71,3.71,0,0,0-1.81-1.93c-1.46-1-1.38-1.93,0-3.11-.53-.41-1.36-.22-1.78-.85-.64.1-1.28.2-1.92.32a5.12,5.12,0,0,0-3,3c0,.11.16.25.26.38-.78.37-1.56-.35-2.43.08-1.7.83-2.71.42-4-1.26a3.13,3.13,0,0,0-.8-.64,5.89,5.89,0,0,0-3.84-1.2c-1.16.12-1.38-.46-1-1.85a.75.75,0,0,0,0-.26A4.49,4.49,0,0,1,35,2.72a4.32,4.32,0,0,0-1.73.2c-1.67.26-2-.27-1.25-2-.57-.16-1.3.34-1.72-.22C29.72-.11,29,.16,28.22.16a15.06,15.06,0,0,0-6.54,2,13.28,13.28,0,0,0-3.83,2.61c-2.81,2.9-5.79,5.63-8.18,8.94A15.54,15.54,0,0,0,7,23a5.66,5.66,0,0,0,.28,1.52,1,1,0,0,0,1.15.74c1-.05,1.28.27,1.11,1.09a10.46,10.46,0,0,1-.58,2c-1.16,2.6-2.23,5.23-3.32,7.85-1.29,3.09-3.05,6-2.88,9.53C1.45,50,1,54.45.45,58.88A37.94,37.94,0,0,0,.2,68.4a41.64,41.64,0,0,1,.25,5.11c0,2.8-.51,5.7,1.1,8.3a3.62,3.62,0,0,1,.2,1.26,13.75,13.75,0,0,0,.31,2A29.92,29.92,0,0,1,3.4,92.19a8,8,0,0,0,1.09,3.42,34.65,34.65,0,0,1,2.42,4.79,33.58,33.58,0,0,0,5.47,9A22.13,22.13,0,0,0,15,111.89a.87.87,0,0,0,1.17.12,1.24,1.24,0,0,1,1.18-.36,18.19,18.19,0,0,1,4.56,1.74,8.33,8.33,0,0,0,3.21,1.38,35.36,35.36,0,0,0,4.09.6c1.5.12,2.94.07,3.44-1.87.18-.69.88-.77,1.47-.36a5.06,5.06,0,0,1,1,.79c.34.39.55.87,1.17.89a2.75,2.75,0,0,0,1.67-.61c.63-.45,1.15-1.1,2-1.18a12.28,12.28,0,0,0,3.42-1.13,13.25,13.25,0,0,0,7.61-6.57c.57-1.15,1-2.37,1.63-3.5a215.81,215.81,0,0,0,10.21-20.9,9.74,9.74,0,0,1,.89-1.57c.44-.67.91-1.06,1.48-.07.13.21.56.07.63-.15a11.5,11.5,0,0,0,.39-1.76c.71-4.51,1.59-9,2.57-13.45.51-2.33.84-4.72,1.35-7.06A2.94,2.94,0,0,0,70,55.1ZM45.83,73a11.81,11.81,0,0,1-.35,2,18.67,18.67,0,0,0-.6,2.51A17.23,17.23,0,0,1,43,83.91c-.92,1.84-2.07,3.58-2.47,5.64a.57.57,0,0,1-.12.23c-.35.47-.64,1.29-1.29,1s-.32-1-.1-1.55a58,58,0,0,0,3.32-11.67A11.42,11.42,0,0,0,42.66,74a5.45,5.45,0,0,1,.41-2.79,4.59,4.59,0,0,0-.22-3.81c-.35,2.26-.79,4.52-1,6.79a48.59,48.59,0,0,1-2,9.08c-.69,2.31-1.44,4.6-2.23,6.89a36,36,0,0,1-5.74,9.75,4,4,0,0,1-4.91.7,12.9,12.9,0,0,1-3.62-4.32,24.38,24.38,0,0,1-3-9.53A57.38,57.38,0,0,1,19.22,76a29.23,29.23,0,0,0-.43-6.18,23,23,0,0,1,.32-7.21A6.59,6.59,0,0,0,19,59.05a5.28,5.28,0,0,1,0-2.56,19.35,19.35,0,0,1,1.8-7.4A3.5,3.5,0,0,0,21,47.82c.3-3.31,1.8-6.28,2.71-9.41a2.89,2.89,0,0,1,.44-.94q2.47-3.3,5-6.56c.14-.18.44-.22.83-.4.26,1.18-.42,2-.73,2.95s-.67,1.71-1,2.57c.64-.16.85-.74,1.11-1.24.52-1,1-2,1.5-3a14.09,14.09,0,0,1,4.36-5.66A13.65,13.65,0,0,0,39,22a3.07,3.07,0,0,1,.5-.59c.92-.92,1.66-.75,2,.51A60.05,60.05,0,0,1,43,29.76c.51,3.23.87,6.49,1.29,9.74.06.42.06.86.16,1.28,1.25,4.89,1.21,9.9,1.5,14.89C46.28,61.44,46,67.2,45.83,73Zm3-63.77c-.67-.61-.43-1.14,0-1.69C49.77,8,50.1,9,50.76,9.71,49.71,10.57,49.35,9.67,48.82,9.2Zm14.44,2.31-.17.09v-.16ZM59.88,45.23h0l.14.11c.29.26.75.49.32,1-.07.08-.35.05-.47,0C59.34,45.94,59.72,45.58,59.88,45.23Zm-1-32.7c0-.06.14-.09.2-.14s.3.18.21.38-.13.15-.19.14A.25.25,0,0,1,58.89,12.53Zm-3.63,11.2c.49-.33,1,.45,1.26,1.85.13.84.24,1.69.37,2.53H57c.22.92.4,1.84.66,2.75a2,2,0,0,1-.39,1.92c-.22.28-.49.54-.85.4-.2-.08-.33-.36-.45-.57a.81.81,0,0,1-.12-.49c.53-2.2-.26-4.22-.74-6.3C54.93,25.13,54.39,24.3,55.26,23.73Zm-.85-2.36c0-.09.23-.22.3-.2a.45.45,0,0,1,.26.57c-.1.07-.24.22-.32.19A.4.4,0,0,1,54.41,21.37ZM53.09,63.78c.5,0,.62.5.72.9-.09.17-.14.44-.23.45-.6.08-.66-.38-.72-.81C52.83,64.1,52.76,63.75,53.09,63.78Zm.1,4.28c0,.22-.17.25-.3.09a.22.22,0,0,1,0-.22s.12,0,.18-.05S53.2,68,53.19,68.06Zm0,6.43c.09.64.2,1.27.26,1.92,0,.23-.13.54-.44.46a.84.84,0,0,1-.51-.45A1.58,1.58,0,0,1,53.17,74.49Zm-.62,5s-.07-.15-.06-.23a3.5,3.5,0,0,1,.07-.45l.15.4C52.76,79.41,52.69,79.52,52.55,79.46Zm1,15.82c-.05.1-.32.16-.45.12A.53.53,0,0,1,52.8,95c-.1-.91.52-1.56.88-2.3A2.27,2.27,0,0,1,53.56,95.28Zm.18-2.63c.13-.16.26-.33.4-.48s.19,0,.19.07C54.31,92.66,54,92.64,53.74,92.65ZM57.1,81.6,57,81.46h.14Zm2.25-20.68c-.73-.15-.92.06-.92.73s.16,1.22-.46,1.62l-.1,0,.08,0h0c-.13.31-.45.67-.38.91a11.09,11.09,0,0,1,.31,3.94c-.08,1,.46,2-1.11,2.13-.34,0-.52.41-.55.78-.06.76-.72,1.32-.61,2.17A1.79,1.79,0,0,1,54.94,75c-.68.39-1.06-.64-1.74-.6a7.48,7.48,0,0,0-.79-2.12c-.44-.66.43-2,1.24-2.1.33,0,.71-.1.94.22s.45.83,1,.48c.28-.19.25-.63.14-1-1-2.87-.51-5.78-.31-8.7A112.68,112.68,0,0,0,55.6,49.9c0-.78-.12-1.57.87-1.91a.51.51,0,0,0,.25-.82c-.89-1.41-.53-2.82,0-4.21.78-2,.31-4.06,0-6.07-.1-.67-.23-1.34-.28-2s.51-.87,1-1,.73.4.79.8a9.87,9.87,0,0,1,0,1.54c0,.34-.16.77,0,1,1.12,1.76.88,3.78,1.21,5.68,0,.25.18.57.08.75-1.07,2-.57,4.14-.36,6.23a4.25,4.25,0,0,1-.21,2c-.5,1.34-.43,1.37.87,2.37a1.12,1.12,0,0,1,.52,1.09c-.06.59-.5.58-.93.62a3.86,3.86,0,0,0-.71.22c.1.82,1.11.53,1.26,1.12a12,12,0,0,1,.4,2.45C60.44,60.46,60.13,61.08,59.35,60.92Zm1.73-7a1.26,1.26,0,0,1-1.3-.89.45.45,0,0,1,.11-.43c.46-.32.69.23,1,.34a.65.65,0,0,1,.52.72C61.34,53.74,61.22,53.9,61.08,53.91Zm.43-4c0,.2-.28.49-.45.5s-.44-.23-.53-.43a1.38,1.38,0,0,1-.18-1.2c.1-.2.33-.34.71-.72.15.21.37.39.42.61A4,4,0,0,1,61.51,50Zm2.92-6.57c0,2.24-.35,4.47-.57,6.71a.49.49,0,0,1-.35.3c-.27,0-.57-.13-.55-.37.11-1.65-.32-3.24-.36-4.86-.08-3.59-.06-7.18-.09-10.77a2.17,2.17,0,0,1,0-.26c0-.35.07-.71.47-.81s.58.3.64.59c.17.93.28,1.87.42,2.8A36.37,36.37,0,0,1,64.43,43.38Z"/><path d="M55.3,2.51c0-.45-.41-.47-.75-.44-.57.07-1.19.48-1.71.07A2.71,2.71,0,0,0,50,1.88a3.17,3.17,0,0,0-2.11,2.21c.75-.33,1.35-1.27,2.17-.95,1.12.44,2.34,0,3.38.62.49-.14,1-.26,1.45-.42S55.32,2.85,55.3,2.51Z"/><path d="M53.42,3.76h0l0,0h0Z"/><path d="M65.19,80.79c-.38,0-.44.47-.42.81s0,.86.38.87c.63,0,.44-.56.49-1C65.53,81.24,65.67,80.74,65.19,80.79Z"/><path d="M59.52,7.6c0-.38-.07-.68-.49-.71s-.74.07-.72.49A.74.74,0,0,0,59,8C59.27,8.06,59.45,7.87,59.52,7.6Z"/><path d="M45.6,5.43c.11.28.37.24.59.12a.83.83,0,0,0,.44-.74,6.42,6.42,0,0,0-.86.23A.42.42,0,0,0,45.6,5.43Z"/><path d="M46.63,4.81h0a1.85,1.85,0,0,1,.14-.14l-.18.1A.43.43,0,0,1,46.63,4.81Z"/><path d="M37.79.52c.09-.05.09-.27.14-.41-.15,0-.32-.14-.45-.1s-.21.23-.12.41S37.69.57,37.79.52Z"/><path d="M47.59,4.24l.26-.09s0,0,0-.06l-.08,0Z"/><path d="M47.59,4.24a1.93,1.93,0,0,0-.77.42Z"/><path d="M43.08,65.11a.26.26,0,0,0,0,.21s.1,0,.16.06.08-.14.06-.2C43.27,65,43.17,64.94,43.08,65.11Z"/><path d="M27.92,37.25l-.55.71c-.09.3-.17.6-.26.89l.31-.84.55-.72c.06-.4.13-.79.19-1.19l0-.07-.07,0C28.06,36.45,28,36.85,27.92,37.25Z"/><polygon points="43.42 63.31 43.51 63.16 43.36 63.14 43.42 63.31"/><path d="M27.06,39l0,0,0-.11-.06.16Z"/><path d="M27.06,39l0,.09C27.17,39.15,27.18,39.12,27.06,39Z"/></g></g></svg>