<svg xmlns="http://www.w3.org/2000/svg" viewBox="0 0 88.01 110.06"><g id="Layer_2" data-name="Layer 2"><g id="OBJECTS"><path d="M85.18,89a2.24,2.24,0,0,1-2.77,1,1.37,1.37,0,0,0-.87.16c-.72.33-1.61.28-2.18,1.06-.17.24-.58.14-.82-.09a.55.55,0,0,1,0-.84,10.94,10.94,0,0,1,2-2.26c.28-.18.47-.45.22-.78s-.51-.75-.89-.32-.73.51-1.05,0a1,1,0,0,0-.75-.45c-2.83-.72-3.18-1.25-2.83-4.33.8.13,1.7.38,2.16-1.19-1.16.89-1.62-.22-2.31-.58a1.51,1.51,0,0,0-1.89,0,3.33,3.33,0,0,1-2.75.77c-3-.06-6-.66-9.05-.54A44.15,44.15,0,0,1,54,80.41a10.35,10.35,0,0,0-2.46-.23c-2.7.32-5.44.07-8.1.76a2,2,0,0,1-1.81-.2,10.52,10.52,0,0,1,1.46-1.26,9.88,9.88,0,0,0,2.65-2.59c.66-.84,1.05-2,2.16-2.41a1.05,1.05,0,0,0,.44-.79,2,2,0,0,1,1.51-2.11A2.19,2.19,0,0,0,51,70.44c.94-1.72,2.47-3,3-5,.21-.76,1.47-.9,1.32-2.05,0-.08.19-.27.32-.29,1.6-.32,2-1.81,2.64-3.05.21-.42.2-1,.65-1.22,1.4-.77,2.16-2.23,3.25-3.33a5.56,5.56,0,0,0,1.75-3,1.37,1.37,0,0,1,.6-.94,6.41,6.41,0,0,0,2-2.87A2.78,2.78,0,0,1,67,47.57c1.81-1.84,2.25-4.51,3.58-6.65a11.1,11.1,0,0,0,1.33-2.5c1-3.35,2.66-6.5,3.21-10a13.53,13.53,0,0,0,1.33-7.23,15.8,15.8,0,0,1-.1-1.93,10,10,0,0,0-1.6-6.18,46.52,46.52,0,0,0-4.94-6.6C68.09,4.38,65.7,3.2,63.41,2S58.31.46,55.72.14a24.94,24.94,0,0,0-8.37.61A51.37,51.37,0,0,0,27,9.93c-1.39,1.05-2.65,2.41-4.48,2.71a2,2,0,0,0-1.37,1.21A5.8,5.8,0,0,1,20,15.6,5,5,0,0,0,19,18a1.88,1.88,0,0,0,.5,2c.64.54,1.21,1.13,2.19.44.59-.41,1-.09,1.16.83.11.68.37.8.9.67.3-.07.58-.18.88-.27l0,.05h.09a.3.3,0,0,0,.35,0h.09l0,0c.41.15,1.05.13,1,.76-.07.87.41,1.14,1,1.38A12.6,12.6,0,0,1,30.93,26a1.88,1.88,0,0,0,1.94.33,20.61,20.61,0,0,1,4.92-.84,7.63,7.63,0,0,0,3.82-1.39c.83-.59,1.51-1.32,2.28-2,3.21-2.69,7-4,10.83-5.45.76-.29,1.26.16,1.35,1.12.11,1.12,0,2.28.25,3.38a4.9,4.9,0,0,1-.2,2.61c-1,2.94-2,5.92-3.19,8.8a94.49,94.49,0,0,1-6.3,13.15,96.05,96.05,0,0,1-6.33,9.45c-3.06,3.92-6.88,7-10.21,10.65-3.6,3.93-8,7-12,10.45-2.34,2-4.83,3.86-6.86,6.34a16.21,16.21,0,0,1-2.91,3c-1.07.77-1.94,1.79-3,2.56a1.89,1.89,0,0,0-.67,2.66,2.2,2.2,0,0,1-.64,2.79,5.9,5.9,0,0,0-.51.49,3.49,3.49,0,0,0-.83,2.19,2.22,2.22,0,0,0,1.17,1.85,1.49,1.49,0,0,1-1.69,0c-.29-.19-.56.17-.74.41s-.1.56.16.82c.91.93,1.77,1.08,2.73.31a4.18,4.18,0,0,0,1.24-1.39c.1-.22.41-.14.56.07a1.5,1.5,0,0,1-.4,2.37,1.61,1.61,0,0,0-1,1.69c.14.87-.29.87-.86,1-1.19.27-1.13.31-.74,1.53.21.63.23,1.3,1.13,1.09.43-.1.7.24.88.63.42.91.86.12,1.29,0A1.68,1.68,0,0,1,7,108.2c-.13,1,.69,2,1.48,1.84,1.15-.29,2.61.35,3.43-1.22.27-.53,1-.4,1.36,0,.87,1.23.88,1.24,2.21.79l0,0c.57-.19,1.19-.18,1.66-.69A8.06,8.06,0,0,1,19,107.77a39.42,39.42,0,0,1,5.88-2.52c.65-.26.81-.53.53-1.24-.19-.5.33-.88.61-.61.72.71,1.3.43,2,.1a18.44,18.44,0,0,1,2.78-1c3.36-.92,6.73-1.76,10.08-2.69a7.62,7.62,0,0,1,2.84-.37c.11-.32,0-.83.52-.83s.39.5.44.85h0a37.26,37.26,0,0,1,8.28-1,4.71,4.71,0,0,0,3.57-1.17,1,1,0,0,1,1.76.19c.55.91,1.32.89,2.18.85a18.38,18.38,0,0,1,5.86.44,3,3,0,0,0,.9.07,23.41,23.41,0,0,0,4.7-.42,35.86,35.86,0,0,1,4.55-.65l.22,0c0,.14,0,.29,0,.43l0-.4c.12-.39.27-.81.76-.59.34.16.6.51.94.64.65.24,1.08-.32.88-1.12,0-.2-.39-.37-.22-.6s.56-.18.8,0c.57.5,1.09.66,1.39-.26a1.62,1.62,0,0,1,1.1-1.11,3.51,3.51,0,0,0,1.69-1.18c.23-.31.61-.53.41-1s-.5-.25-.79-.27c-.75-.07-1.51-.12-2.25-.24-.17,0-.36-.29-.43-.49a.39.39,0,0,1,.34-.5,8.46,8.46,0,0,1,2.9-.53,1.42,1.42,0,0,0,1.49-.84.57.57,0,0,0,0-.66C85.61,88.86,85.3,88.78,85.18,89ZM65.85,47.26l-.16.09v-.16ZM21.43,95.05h0c0-.48,0-1,.62-1.06a5.71,5.71,0,0,0,1.51-.45,10.72,10.72,0,0,0,1.28-.91,5.11,5.11,0,0,1,1.27,2.18c.17.37.22.84-.18,1a1.73,1.73,0,0,1-1.08.1c-.37-.07-.32-.47-.32-.79s0-.46,0-1a2.38,2.38,0,0,0-.41,2.35c.19.64-.37.74-.77.91-.28-.49-.85-.87-.22-2-1.1.62-1.35,1.45-2,1.75a.74.74,0,0,1-1-.13c.55-.59.56-1.58,1.31-2l.08,0Zm1.83,2.46c-.16.36-.11.92-.75.76a.26.26,0,0,1-.12-.19C22.38,97.36,22.91,97.59,23.26,97.51ZM20.19,93.8s.11-.09.16-.08.23.16.16.34-.21.24-.29.11A.75.75,0,0,1,20.19,93.8Zm-1.93.25c.06-.24.19-.4.45-.33.05,0,.15.11.14.15a.47.47,0,0,1-.48.33c.13.43.25.87.38,1.31-.34,0-.75.2-.92-.22A1,1,0,0,1,18.26,94.05ZM14.6,95.47a.23.23,0,0,1,.18-.08c.17,0,.21.17.12.35s-.24.11-.33-.06A.26.26,0,0,1,14.6,95.47Zm-2-.81.14.17-.16.15c-.05-.06-.13-.12-.13-.17S12.56,94.71,12.61,94.66Zm-.9,1.7c.27,0,.32.22.22.44a.36.36,0,0,1-.52.2c-.09,0-.13-.2-.22-.36C11.37,96.54,11.53,96.37,11.71,96.36Zm.62,1.81c.63-.26,1.2-.35.6-1.25-.12-.17.14-.43.39-.41.5.06,1.08-.09,1.38.57a.67.67,0,0,0,.74.43c.29-.05.65-.12.57-.54s-.33-.91-.4-1.38.31-.75,1.19-.67v.18l0-.18v0a10.29,10.29,0,0,0,.87.76c.38.28.78.39,1.11-.07,1-.06.91.92,1.23,1.51a12.34,12.34,0,0,1-1.72,0c-.73-.09-1.32,0-1.65.8-.19.47-.65.59-1.09.73-.88.29-1.86.2-2.68.75v0c-.73.6-1.44.88-2.09-.16A3,3,0,0,1,12.33,98.17Zm7.25,0-.08.14-.19-.15.14-.14Zm-4.73,1.74a.28.28,0,0,1-.4-.3.39.39,0,0,1,.3-.22c.09,0,.19.14.29.22C15,99.74,14.93,99.9,14.85,99.93Zm.08.84c0,.28-.07.48-.32.47a.68.68,0,0,1-.67-.47c-.09-.28.15-.41.37-.44A.51.51,0,0,1,14.93,100.77Zm-5.95,0c1.45-.92,2.52-.25,3.61-.31,0,.63-.32.88-.72.83C11,101.18,10.14,101,9,100.77Zm1.44.89c-.07.16-.18.21-.32.11a.23.23,0,0,1-.1-.17s.08-.11.14-.14S10.39,101.48,10.42,101.66ZM9,101.54l0,.14-.11-.09Zm1.46-4.08a.45.45,0,0,1,.55.28.49.49,0,0,1-.57.26,3.43,3.43,0,0,1-.58-.28A2.87,2.87,0,0,1,10.46,97.46ZM9,97.59s.1.1.15.16l-.17.15-.14-.17S8.91,97.58,9,97.59ZM9,98.82c.34,0,.74-.28,1,.16a.46.46,0,0,1-.3.57c-.35.11-.76.25-1-.22A.36.36,0,0,1,9,98.82Zm.23,9.46s0-.15.09-.2l.25-.22c0,.11-.08.21-.11.32S9.35,108.45,9.27,108.28Zm.43-.58c0-.35-.08-.69-.08-1,0-.08.16-.16.25-.25.07.12.18.23.19.35A1,1,0,0,1,9.7,107.7Zm2.75-2.6c-1-.64-1.86.26-2.81.28-1.12,0-1.12.11-1.32,1.35,0,.22,0,.48-.27.61-.59,0-.74-1.4-1.58-.63,0-.55.23-1.3-.78-1.17a6.47,6.47,0,0,1-.88,0c-.38,0-.85,0-.95-.41-.15-.58.31-.77.76-.94,1-.36.85-1.55,1.38-2.25.33-.25.6-.79,1.07-.4a1,1,0,0,1,.21,1.25,7.28,7.28,0,0,1-.8,1l.82.86,0,0,1.28-.37c0-.5-.51-.36-.55-.63a.38.38,0,0,1,.57-.41A7.54,7.54,0,0,0,12,104c.19,0,.4.21.56.37a.5.5,0,0,1,.12.41A.67.67,0,0,1,12.45,105.1Zm1.1,2.48c-.16.16-.51.23-.54,0-.08-.59-.2-1.31.7-1.32C13.76,106.72,13.94,107.2,13.55,107.58Zm.22-1.38.11-.3C14.16,106.2,13.92,106.17,13.77,106.2Zm1.69,3.44a4.42,4.42,0,0,1-.63,0c-.44,0-1-.15-.94-.72s.63-.42,1-.37a1.67,1.67,0,0,1,.43.1C16.07,108.92,15.7,109.29,15.46,109.64Zm-1.14-2.21a.18.18,0,0,1,.12-.12s.08.09.12.14l-.13.13S14.31,107.48,14.32,107.43Zm.72-1s.07-.13.12-.16.29,0,.29.15-.13.25-.29.17A.52.52,0,0,1,15,106.47Zm2.1.37c-.33,0-.9,0-.88-.48,0-.74.62-.5,1-.42a6.07,6.07,0,0,1,1,.36A1.09,1.09,0,0,1,17.14,106.84Zm.26-2c.15,0,.22,0,.19.19s-.13,0-.15,0A.62.62,0,0,1,17.4,104.8Zm3.35,1.25,0-.13.11.08Zm0-3.46a.38.38,0,0,1-.4-.06c-.25-.36-.45-.75-.67-1.13h.85a7.17,7.17,0,0,1,.35.8A.42.42,0,0,1,20.78,102.59Zm.77,1.69c.08-.39.32-.77.67-.67s.44.72.56,1.14Zm2-1.5c-.06,0-.23-.1-.42-.18a2.05,2.05,0,0,1,.38-.47c.18-.12.44-.1.43.19S23.73,102.67,23.56,102.78Zm2.57-3.23c-.17.11-.53,0-.51.31.09,1-.52,1.28-1.23,1.21s-1.27.6-1.75-.4c-.18-.38-.78-.29-1.19.06s-.6.42-.9.63c-.57-.81-1.06-1.08-1.53-.71a15.55,15.55,0,0,0-1.3,1.27c.32.75.81.09,1.2.2s.61.2.58.6-.27.74-.54.67c-1.6-.39-2.86.62-4.24,1.12-.36.12-.84.32-1.05-.08-.71-1.35-1.9-1-3-1.12-.06,0-.12-.09-.18-.15,0-.59.52-.49.84-.55a6,6,0,0,0,1.93-.32,3.29,3.29,0,0,1,2.82.29c.09,0,.29-.09.36-.2s.05-.36,0-.38c-1.48-.67-.09-1.64-.16-2.45,0-.34.68-.79,1.1-1.12.24-.19.65-.26.77.12.31.93,1,.94,1.66.77,1.3-.32,2.65.08,4-.34a5.21,5.21,0,0,0,1.8-1c0-.14.06-.39.13-.41.32-.08.26.23.32.42C27.09,98.88,27.09,98.88,26.13,99.55ZM29.46,92l.07.2h-.16Zm.21,2.14c0,.14,0,.27.06.41,0,.35.27.85-.18,1s-.58-.38-.64-.73C28.79,94.16,29.23,94.14,29.67,94.17Zm-1.58-3.1s.13.09.15.16c.05.3-.09.41-.35.41C27.86,91.42,27.86,91.2,28.09,91.07Zm-.3.65-.22.21C27.52,91.67,27.67,91.72,27.79,91.72Zm-.45,3.51a.5.5,0,0,1,.4-.56c.12.09.37.16.44.33.17.36-.05.57-.39.6A.41.41,0,0,1,27.34,95.23Zm1.12,7c-.13,0-.26.15-.39.14s-.27-.18-.17-.3a.48.48,0,0,1,.38-.15C28.47,101.92,28.53,102.05,28.46,102.22Zm2.14-5.1c-.63.84-1.25,1.7-1.93,2.49a.52.52,0,0,1-.8-.14,1.22,1.22,0,0,1,.39-2c.58-.36,1.18-.7,1.78-1a.43.43,0,0,1,.4,0c.1.07.13.26.2.4S30.64,97.07,30.6,97.12ZM44,88.88c.05,0,.09.09.13.14s-.1.12-.15.12-.08-.09-.12-.14S44,88.87,44,88.88ZM43.45,92c.34,0,.75-.12.85.38.07.34-.26.48-.48.64v0l-.92-.48A.67.67,0,0,1,43.45,92ZM42.53,90s.07-.14.13-.16.12,0,.19.07,0,.16,0,.19S42.58,90.19,42.53,90Zm0-5.59a.59.59,0,0,1,.4.65.65.65,0,0,1-.74.67.59.59,0,0,1-.52-.65A.7.7,0,0,1,42.49,84.4Zm-.75,6.9s.09.09.13.14-.1.13-.15.13-.08-.1-.12-.15S41.7,91.3,41.74,91.3ZM41,89.49a.37.37,0,0,1,.36-.14c.09,0,.12.23.18.35-.09.1-.19.27-.28.27C41,90,40.9,89.72,41,89.49ZM40,93c.27-.51.57-.19.84,0l.15.11a.62.62,0,0,1-.11.17c-.22.22-.24.84-.74.5A.68.68,0,0,1,40,93Zm-1.9-3.67c.09,0,.2.17.31.26,0,.26-.06.47-.31.49a.39.39,0,0,1-.3-.24C37.79,89.64,37.88,89.4,38.14,89.37Zm-1.7,1.95v.18l-.18-.1Zm-2-.11c.08.43-.28.7-.52,1s-.52.2-.48-.06c.11-.64-.39-.93-.56-1.4a4.57,4.57,0,0,1,.83.06C34,90.84,34.41,90.81,34.47,91.21Zm-2.61,9.53s-.05-.12,0-.13.23-.07.21.09A.33.33,0,0,1,31.86,100.74Zm0-1.23c-.2,0-.53.09-.63,0a2.88,2.88,0,0,1,.12-2.67.68.68,0,0,1,.21-.1c.25,0,.46.14.41.4-.11.66-.67,1.3.14,1.92C32.3,99.21,32,99.46,31.82,99.51Zm-.06-4.13a.22.22,0,0,1-.25.31c-.13,0-.34-.11-.36-.21A5.47,5.47,0,0,1,31,93.1c.07-.38-.1-.9.32-1.09.59-.26.7.37,1,.71a6.65,6.65,0,0,0,1,.88l-.58.23C32.06,94.11,31.42,94.39,31.76,95.38Zm1.2.87c.16-.18.44,0,.57.14a1.81,1.81,0,0,1,.22.59,2.13,2.13,0,0,1-.56-.23C33,96.65,32.75,96.49,33,96.25Zm1.63,1.56c0,.11-.41.2-.58.15-.55-.16-.28-.58-.22-.92a.44.44,0,0,1,.2,0C34.3,97.21,34.76,97.27,34.59,97.81Zm0-2.24c-.72.06-1-.22-1.3-1.53a1.17,1.17,0,0,1,0-.41,3.15,3.15,0,0,1,.56.24,1.64,1.64,0,0,1,.89,1.61S34.67,95.56,34.6,95.57Zm.89-3.08v-.17l.17.09ZM36.37,98c-.12,0-.31-.14-.34-.25-.08-.38.15-.57.48-.63a3.25,3.25,0,0,1,.44,0h0a3.49,3.49,0,0,1,0,.46C37,97.93,36.71,98.06,36.37,98ZM37,94.8s0-.13.06-.2.15,0,.18,0a.26.26,0,0,1,.06.2C37.23,95,37.11,95,37,94.8Zm1.19-1.68c-.2,0-.43-.06-.44-.33,0-.06.22-.18.35-.19s.43,0,.45.31C38.58,93,38.35,93.05,38.22,93.12ZM38.55,91l0-.14.12,0Zm.32,4.36c-.06,0-.13-.25-.13-.37,0-.3.08-.6.13-.9l.28-.06c0,.3.08.6.08.9S39.17,95.46,38.87,95.4Zm1.36,1.47a1.35,1.35,0,0,1-.56-.28.23.23,0,0,1,0-.39c.36-.17.52.15.7.38S40.4,96.9,40.23,96.87Zm1.47-.07.08-.13,0,.15Zm.52-1.19a4.73,4.73,0,0,1-1.1-.25c-.42-.12-1.22.45-1.2-.49,0-.54.7-.43,1.12-.48l.77-.12a3.75,3.75,0,0,1,.55.13.64.64,0,0,1,.49.69A.55.55,0,0,1,42.22,95.61Zm.7,1.16c0-.28.22-.23.39-.23-.08.1-.15.2-.23.29S42.92,96.78,42.92,96.77Zm.44-.26c-.26-1,.42-1.32,1-1.69C44.81,96.68,44.81,96.69,43.36,96.51Zm9.56-15c2.65-.11,5.3-.2,7.95-.3v.22c2.43,0,4.85,0,7.28,0a7.87,7.87,0,0,1,2.67.52.56.56,0,0,1,.3.58.49.49,0,0,1-.42.5,5.59,5.59,0,0,1-1.58.06,100,100,0,0,0-15-.53,7.6,7.6,0,0,1-1.35-.1.45.45,0,0,1-.34-.54A.47.47,0,0,1,52.92,81.49Zm15.85,3.93c0,.27-.14.39-.34.46s-.47.08-.56-.15.12-.5.41-.57A.39.39,0,0,1,68.77,85.42Zm-2.54.34a3.37,3.37,0,0,1-2.18-.42c-.52-.27-.53-.94-.46-1.5,0-.15.32-.35.5-.37a2,2,0,0,1,.66,0c.77,0,1.07-.1,1.36-.08a1.06,1.06,0,0,1,1.14.94A1.35,1.35,0,0,1,66.23,85.76Zm.67,1.72s-.08.1-.13.15-.11-.11-.11-.16.08-.11.13-.17S66.9,87.42,66.9,87.48ZM65.13,87a.59.59,0,0,1-.67.46.83.83,0,0,1-.92-.79c0-.37.36-.43.65-.39S65.09,86.36,65.13,87Zm-12.77-6.4c.19.07.21.19,0,.3a.19.19,0,0,1-.19,0s0-.13,0-.19S52.31,80.56,52.36,80.57Zm2.55,2.84c1.94,0,3.9-.26,5.86-.07.51,0,1.11-.09,1.26.67.12.57-.33,1-1.22,1.06a4.43,4.43,0,0,0-2.2.46.71.71,0,0,1-.84-.07A5.19,5.19,0,0,0,53.61,85a5.21,5.21,0,0,1-2.42,0A4.18,4.18,0,0,1,54.91,83.41Zm-5.69,1.3c.72-.7,1.31-.26,1.89.24-.63.42-1.27.83-1.9,0A.26.26,0,0,1,49.22,84.71Zm-4.3,6.23c-.05,0-.14-.11-.13-.15a2,2,0,0,1,.13-.36c.07.08.2.17.19.24S45,90.85,44.92,90.94Zm1,1.23c-.11,0-.22-.17-.33-.26.11-.1.22-.27.33-.27s.22.17.33.26C46.12,92,46,92.17,45.9,92.17Zm1,4.27c-.1-.09-.28-.16-.29-.26a.35.35,0,0,1,.38-.44.42.42,0,0,1,.28.26C47.38,96.3,47.18,96.4,46.94,96.44Zm.23-1.84a.64.64,0,0,1-.59-.21A.91.91,0,0,1,46.85,93c.14-.17.29-.35.45-.07,0,0-.13.21-.2.32a3,3,0,0,0,.18.68C47.44,94.2,47.61,94.49,47.17,94.6ZM47.61,92l.08-.14.05.16Zm-1.3-3.5a2.61,2.61,0,0,1,1.79-.71c1.27.08,2.57-.29,3.81.32A1.84,1.84,0,0,0,53.23,88c1.28-.35,2.58-1,3.88,0,.18.14.57,0,.87-.08a10,10,0,0,1,3,.27c1.14.21,2.33.82,3.58.28.27-.12.61.41.37.62a2.58,2.58,0,0,0-.67,1.13c-.36.1-.72.19-1.07.31s-.65.23-.83-.09c-1-1.83-2.73-1.34-4-.95a8.7,8.7,0,0,1-5.72,0A19.11,19.11,0,0,0,47.89,89,2.13,2.13,0,0,1,46.31,88.45Zm17,3.13-.16.13a2.91,2.91,0,0,1-.18-.35s.11-.11.16-.1S63.39,91.39,63.33,91.58Zm-2.2,1a.39.39,0,0,1-.45-.35c0-.12.1-.25.15-.37l.39.29C61.35,92.38,61.31,92.52,61.13,92.54ZM54.5,93c1-.72,2.11-.21,3.16-.45A.38.38,0,0,1,58,93c0,.2-.22.49-.37.52-.8.15-1.62.23-2.53.35a3.06,3.06,0,0,1-.55-.16.52.52,0,0,1-.26-.35A.51.51,0,0,1,54.5,93Zm-.21-1.15s.1,0,.15.06,0,.14,0,.14C54.21,92,54.18,92,54.29,91.84ZM58,91.06c0-.3.4-.56.85-.58.65,0,1.38.45,1.31.92s-.55.68-1,.75A1.15,1.15,0,0,1,58,91.06Zm-5.28-.13a2.46,2.46,0,0,1-.38.14s-.08-.11-.13-.18a2,2,0,0,1,.38-.14S52.68,90.86,52.72,90.93ZM51.18,92.5c-.14,0-.28.12-.39.08s-.2-.22,0-.34a.3.3,0,0,1,.21,0C51.16,92.22,51.22,92.33,51.18,92.5Zm-2.82,5.72a.25.25,0,0,1-.23-.32c0-.05.15-.12.16-.11a2.51,2.51,0,0,1,.25.32ZM49,93.34a.31.31,0,0,1,.55.07,2.94,2.94,0,0,1,.13.67,2.93,2.93,0,0,1-.56-.35C49.07,93.65,49,93.39,49,93.34Zm.68.76c.46.16.4.57.44,1C49.48,95,49.35,94.71,49.72,94.1Zm1.74,2.51a.64.64,0,0,1-.74.39c-.55-.14-1-.43-.84-1.13,0-.11.19-.2.29-.3l0,0c0-.16,0-.31,0-.47a1.05,1.05,0,0,1,1,.27A1,1,0,0,1,51.46,96.61Zm7.33-1.52c-.3.23-.57.65-.94.53-1.63-.48-3,.63-4.6.62-.21,0-.43.36-.76.66-.44-1.22-.11-2.37-.33-3.48a.59.59,0,0,1,.65.37c.85,1.26.87,1.3,2.11.92,1.73-.53,3.54-.58,5.28-1.1a2.73,2.73,0,0,1,2.73.51c-.74.85-1.7.57-2.54.41A1.75,1.75,0,0,0,58.79,95.09Zm9.28,2.12c-.11.34-.42.39-.74.36-.73-.07-1.45-.49-2.17.09-.23.18-.39-.08-.51-.29-.4-.74-.84-1.19-1.51-.27-.31.43-.81.38-1.24.46s-.86.66-1.24.2A1.67,1.67,0,0,1,60.4,96a1,1,0,0,1,1.33-.6c.14,0,.29.06.44.09l0,0v0l0-.05a1,1,0,0,1,.8-.2c.42.09.79,0,.79-.52s-.47-.5-.79-.63a1.45,1.45,0,0,1,0-.66c.41-.81.94-.88,1.25-.09s.36.74.57,0a.54.54,0,0,1,.74-.33c.36.11.42.4.31.76-.34,1.12-.06,1.87,1.11,2.12a2,2,0,0,1,.76.48A.85.85,0,0,1,68.07,97.21ZM68,89.61a9.54,9.54,0,0,1-1.24.37c-.29-.07-.51-.11-.72-.18a.68.68,0,0,1-.21-1,1.3,1.3,0,0,1,2.26.18C68.21,89.19,68.22,89.51,68,89.61Zm.46,1.7s.12,0,.18.06l-.12.33-.32-.17A1.09,1.09,0,0,1,68.46,91.31Zm.17,3.76a.44.44,0,0,1-.31-.52c0-.18.15-.24.32-.18s.38.25.33.5A.37.37,0,0,1,68.63,95.07Zm.72,2.73a.3.3,0,0,1-.28-.44c0-.09.25-.16.35-.13s.14.22.21.34C69.54,97.65,69.44,97.81,69.35,97.8Zm.09-13c-.1-.32.13-.4.35-.47s.4.11.45.35-.09.43-.38.51S69.5,85.07,69.44,84.83Zm.49,9.5c-.1-.2.07-.59.18-.87a.55.55,0,0,1,.73-.34.64.64,0,0,1,.52.86,3.15,3.15,0,0,1-.27.59C70.66,94.7,70.18,94.86,69.93,94.33Zm.55,3.72s-.13,0-.13-.06a.64.64,0,0,1,.05-.17s.13,0,.13.06A.48.48,0,0,1,70.48,98.05ZM72,95.32c-.36.2-.51-.08-.66-.35l-.18-.35c.12,0,.24,0,.36,0,.28,0,.6-.11.76.18S72.17,95.22,72,95.32Zm1-1.69c-.11,0-.22-.15-.33-.23l.32-.26.33.24C73.24,93.47,73.14,93.62,73,93.63Zm.71,3.26c-.18,0-.23-.1-.13-.24a.19.19,0,0,1,.18,0s.06.11.09.16S73.78,96.9,73.74,96.89Zm0-11.19a1.08,1.08,0,0,1-1.34-.51,1,1,0,0,1,.17-.38.76.76,0,0,1,.42-.12c.44,0,1-.07,1,.64A.46.46,0,0,1,73.72,85.7ZM75.89,87a.33.33,0,0,1-.22-.49.36.36,0,0,1,.36-.12c.09.05.1.25.15.38C76.08,86.85,76,87,75.89,87Zm2.16,9.3c-.17.14-.29.1-.31-.09s.09-.11.14-.17a.52.52,0,0,1,.2.07A.22.22,0,0,1,78.05,96.29ZM80.14,93s-.09-.1-.13-.15a1.48,1.48,0,0,1,.35-.13s.09.1.13.15A1.48,1.48,0,0,1,80.14,93Zm1.89.51c.15-.09.25,0,.3.13l-.22.27a1.28,1.28,0,0,1-.2-.26S82,93.56,82,93.53Z"/><path d="M6.48,103.81h0l0,0Z"/><path d="M58.76,95.11l0,0,0,0Z"/><path d="M80.4,85.66a2.12,2.12,0,0,0,1.46-.59A2.3,2.3,0,0,0,81,83.78c-.36-.32-.68-.17-1,.09a1.06,1.06,0,0,0-.44,1.23A.8.8,0,0,0,80.4,85.66Z"/><path d="M87.61,89.41c-.26-.08-.41.11-.38.38a.63.63,0,0,0,.53.6c.07,0,.16-.17.25-.27C88,89.82,87.93,89.5,87.61,89.41Z"/><path d="M.48,100.94l.05,0s0,0,0-.06l-.05,0Z"/><path d="M0,101.65c0,.2,0,.32.21.32a.22.22,0,0,0,.16-.15c0-.29.07-.58.1-.88A.88.88,0,0,0,0,101.65Z"/><path d="M86.25,93.67c-.18,0-.26.17-.13.25a1.32,1.32,0,0,0,.49.13C86.57,93.84,86.47,93.68,86.25,93.67Z"/><path d="M86.63,94.09l0,0h-.06S86.62,94.08,86.63,94.09Z"/><path d="M.69,100.51c-.09.06-.11.22-.15.35.12,0,.27-.07.32-.16S.84,100.4.69,100.51Z"/><path d="M78.09,84.81c0,.07.07.18.1.18s.19-.13.08-.31a2.79,2.79,0,0,0-.28-.32h0v0C78,84.52,78,84.67,78.09,84.81Z"/><path d="M3.06,102.15c.11-.12.07-.21-.1-.22s-.12,0-.15.1,0,.09.07.13S3,102.19,3.06,102.15Z"/><path d="M43.78,99.44h.93C44.41,99.07,44.09,99.36,43.78,99.44Z"/><path d="M76.6,98.71l.11-.08c0-.14,0-.28,0-.43l0,.38Z"/><path d="M78,84.22c-.15.07-.15.11,0,.13Z"/><path d="M17.46,100.09a.27.27,0,0,0-.11.17c.08.11.17.21.26.32l.1-.21C17.72,100.17,17.64,100.06,17.46,100.09Z"/><path d="M61.94,96.38a.5.5,0,0,0,.39.05c.28-.16.08-.36,0-.54l-.18-.38-.23.3C61.78,96,61.69,96.22,61.94,96.38Z"/><path d="M50.19,95.55l0,0h0Z"/><path d="M50.19,95.57l0,.11C50.34,95.59,50.33,95.55,50.19,95.57Z"/></g></g></svg>