<svg xmlns="http://www.w3.org/2000/svg" viewBox="0 0 75.01 121.32"><g id="Layer_2" data-name="Layer 2"><g id="OBJECTS"><path d="M74.91,83.6C74,80.81,73,78,72.26,75.21c-.21-.81-1-.75-1.27-1.24s.09-1.23-.4-1.76c-.15-.17-.4-.43-.57-.42-1.58.16-2.16-1.05-2.77-1.82A19.29,19.29,0,0,0,61,65.27a9,9,0,0,0-3.22-1.33,1.43,1.43,0,0,1-1.25-1l.1-.08-.11,0v0A3.78,3.78,0,0,1,54,61.51l1.1-.17L53.92,61a.71.71,0,0,0-.08.38c-.67-.11-1.26-.13-1.58-.92A2.62,2.62,0,0,0,50,58.86c-1.29-.11-2.31-.92-3.64-1.09-.78-.1-2-.43-2-1.68,0-.51-.51-.19-.8-.16-.46,0-.68-.17-.54-.52a22.49,22.49,0,0,1,3.72-6,.84.84,0,0,1,.42-.26.57.57,0,0,1,.45,0,.47.47,0,0,1,.13.41,6.59,6.59,0,0,1-.49.8c-.42.67-.87,1.33-1.26,2a6.69,6.69,0,0,0-1.42,2.39,9.26,9.26,0,0,0,3.81-6.14c0-.29-.07-.59.21-.82.77-.62.65-1.55,1-2.32s1.7-.73,2.19-1.54a6.73,6.73,0,0,1,1.18-1.21c.21-.2.37-.55.78-.31.26.34-.06.57-.17.84-.8,1.91-2.24,3.57-2.71,5.6a3.81,3.81,0,0,0,1.4-1.78c.69-1.58,2.07-2.79,2.91-4.25a36.1,36.1,0,0,1,3.48-5.67,4.73,4.73,0,0,0,.78-1.88,6.44,6.44,0,0,1,2.74-4c.86-.51,1,.08,1.21.55a1.84,1.84,0,0,0,.93-1.26c.19-.5.33-1,.53-1.51a.6.6,0,0,1,.81-.34c.4.13.31.43.29.7.41-.13.52-.49.76-.75.91-1,.55-2.31,1.38-3.27-.44-.94-.82-1.83.45-2.59.75-.45.9-1.12.1-1.71s-.53-1.06-.18-1.63c.19-.33.44-.63.66-.94-.37-.08-.84,0-1-.48a.75.75,0,0,1,.35-.8c.19-.14.48-.17.69-.3,1.15-.71,1.21-2,1.79-3,.35-.61-.5-1.22-.88-1.8-.72-1.1-.9-1.2-2.47-.66.53.21,1.14.35,1.13,1,0,.38,0,.78-.5.95s-.62-.11-.88-.31-.53-.87-1.19-.59c-.29.12-.49.43-.77.57-.66.33-1.37,0-1.25-.57.18-.87,0-1.86.9-2.52a1.36,1.36,0,0,0,.47-1.45.61.61,0,0,0-.58-.64.41.41,0,0,0-.45.44c0,.72-.42,1.08-1.14,1.26a4.68,4.68,0,0,1,.05-.84C63.81,7,63.82,7,62,6a4.21,4.21,0,0,1-1.82-1.58A2.44,2.44,0,0,0,59,3.23a3.37,3.37,0,0,1-1.77-1.9c-.34-.8-.82-1-1.69-1.07-1.2-.1-2.47-.64-3.47.22a2.66,2.66,0,0,1-2.12.6c-3.87-.4-6.75,1.66-9.84,3.1-1.49.69-2.63,1.94-4,2.84-.49.33-.93,1-1.25,1a5.14,5.14,0,0,0-3.57,2.26c-.14.16-.38-.13-.44-.36l.08-.1-.1.06v0c-1.27-.22-1.85.66-2.61,1.26h0a11.54,11.54,0,0,1-1.73,1.33,13.43,13.43,0,0,0-6.12,6.05A5.21,5.21,0,0,0,18,19.7c-2.22,1.88-3.53,4.35-5.66,6.29a9.6,9.6,0,0,0-2.6,4.15c-.2.58-.61,1.1-.84,1.68a1,1,0,0,1-1.12.75c-.76-.07-.65-.61-.6-1.05a7.19,7.19,0,0,1,1.59-3.83c.77-1,2-1.73,2.07-3-3.14,2-3.63,2.44-4.51,5.36A33.61,33.61,0,0,0,5.2,38.87a11.9,11.9,0,0,0,.65,4.72,8.43,8.43,0,0,1,.43,3.53,2.87,2.87,0,0,0,.42,2.34h0c.54.6,1.07,1.2,1.61,1.79,1,1.12,2,2.24,3,3.37.4.45.4.83,0,1.43-.69,1.17-.38,1.8.85,2.69a2.77,2.77,0,0,1,.76.6,13.43,13.43,0,0,1,1.62,4.94,1.56,1.56,0,0,1-.35,1.08c-1,1.26-1.68,2.66-2.72,3.91A47.76,47.76,0,0,0,3.68,83.18c-.89,2.33-1.4,4.73-2.05,7.11-1.25,4.62-2.3,9.24-1.1,14a18.16,18.16,0,0,1,.86,3.53,6.33,6.33,0,0,0,2,4.35,4.94,4.94,0,0,1,1.85,2.91,1.43,1.43,0,0,0,.89,1.08,3.29,3.29,0,0,1,1.64,1.42,1,1,0,0,0,1.34.42,4,4,0,0,1,3.24.3,5.83,5.83,0,0,0,2,.5c1.28.07,2.48.6,3.84.41.77-.11,1.15.41,1,1.17-.06.32-.23.59.15.78a.72.72,0,0,0,.93-.11c.74-1,2-1.21,3.09-1.59.69-.24,1.22-.15,1.51.47.53,1.14,1.54,1,2.62.85a14.6,14.6,0,0,1,2.51-.61,6.56,6.56,0,0,0,6-3.34c1.89.06,1.88,0,2.46-1.24.17-.38,0-1,.8-1.06.52.69.93,1,2.11.42s2.48-.71,3.41-1.55a32.33,32.33,0,0,1,2.65-1.86c.94-.7,2.42-1,2.43-2.49a.53.53,0,0,1,.73-.45,1.42,1.42,0,0,0,1.21-.2,7.07,7.07,0,0,0,2-1.46c.5-.62,1.84-.45,1.84-1.45s1.59-.23,1.68-1.29c0-.56,1.19-1.15,1.59-.71,1,1.16,1.3.38,1.67-.33a2.21,2.21,0,0,1,1.13-.9,20,20,0,0,0,1.94-1.17c.89-.59,1.1-2,2.73-1.74.12,0,.36-.3.49-.49C68.13,97,70,95.46,71.59,93.74a7.83,7.83,0,0,0,2.21-4.06,26.08,26.08,0,0,1,1-4.51A2.42,2.42,0,0,0,74.91,83.6ZM66.67,26.77c.1,0,.19.29.14.36s-.28.12-.43.17c-.08-.1-.26-.21-.24-.28A.37.37,0,0,1,66.67,26.77Zm-1-12.26c.07,0,.17,0,.2,0s.11.27-.1.32c0,0-.15-.08-.17-.13S65.59,14.57,65.62,14.51Zm-.92,7.63a.45.45,0,0,1,.59.26.44.44,0,0,1-.44.44c-.3,0-.49-.13-.46-.38S64.57,22.19,64.7,22.14Zm-58,27.32a.85.85,0,0,0,0-.17c-.07-.38-.2-.84.24-1a.57.57,0,0,1,.73.48C7.77,49.39,7.27,49.45,6.74,49.46ZM12.3,29.92c-1,2.91-1.23,6-3.37,9A6.85,6.85,0,0,1,9,34c.62-1.47,1.76-2.76,2.27-4.3a.61.61,0,0,1,.81-.36A.59.59,0,0,1,12.3,29.92ZM5.41,103.76a.19.19,0,0,1-.18-.31c0-.06.11-.09.17-.14s.15.08.18.13A.19.19,0,0,1,5.41,103.76Zm3.2-14.13a6.14,6.14,0,0,1-1.28,3c-.28.41-.11.61.46.78.77.22.9.94.32,1-1.62.28-1.94,1.37-2.29,2.48a1.83,1.83,0,0,1-.92,1.27,4.24,4.24,0,0,1-.58-3.8c.41-1.69.33-3.5,1.6-5,.26-.3.06-.54-.32-.72-.83-.38-.64-1.06-.4-1.6a24.31,24.31,0,0,1,1.62-3.12c.75-1.24,2.35-1.44,3.59-2.08a.26.26,0,0,1,.39.19c0,.14.06.36,0,.42a2.35,2.35,0,0,0-.87,2.68,1.33,1.33,0,0,1-.2,1.09C8.68,87.22,8.69,88.39,8.61,89.63Zm2.21,1.17a1.34,1.34,0,0,1-.66,1,.86.86,0,0,1-.46,0,.2.2,0,0,1-.15-.16,1.2,1.2,0,0,1,.7-1.34C10.5,90.28,10.73,90.42,10.82,90.8Zm-1.2,20-.32-.26c0-.06.09-.15.15-.16.21,0,.32.05.3.23S9.67,110.74,9.62,110.8Zm.32-11.23a.38.38,0,0,1-.13-.38c0-.1.23-.16.35-.24.09.11.25.21.25.32S10.23,99.68,9.94,99.57Zm1.2,4.92a.45.45,0,0,1-.51.18c-.27,0-.42-.23-.36-.47a.43.43,0,0,1,.55-.28A.4.4,0,0,1,11.14,104.49Zm.52-6.62-.08-.16h.17ZM46.55,62.81a.78.78,0,0,1,.9.21c0,.18,0,.3-.22.36a.72.72,0,0,1-.89-.21C46.23,63,46.34,62.87,46.55,62.81ZM43,61.53c.17-.06.3,0,.33.17s-.08.1-.12.16l-.35-.17C42.92,61.63,43,61.56,43,61.53ZM54.36,30.11c-.42,1.06-.3,2.22-1.08,3.26A5.09,5.09,0,0,0,52.4,36c-.15,2.3-1.7,4-3.06,5.72-2.09,2.71-4.28,5.36-5.42,8.55a25.16,25.16,0,0,1-1.69,3.61c-.67,1.25-.84,1.25-2.46.89a13.63,13.63,0,0,1-4.45-1.89,49.89,49.89,0,0,0-7.67-3.92c-1.72-.72-2.57-1.75-2.22-3.45.17-.83.18-1.69.43-2.49a19.5,19.5,0,0,1,4.64-8.39,74.82,74.82,0,0,1,6.4-6c.58-.47,1.18-.91,1.24-1.68.09-1,.91-1.46,1.74-1.88,2.17-1.11,4.12-2.55,6.61-3.19a5.4,5.4,0,0,0,2.6-1.73c-.3.06-.61.12-.9.2-.61.18-.88-.14-.75-.55a2.52,2.52,0,0,1,2.66-1.9c-.11,1.34,1,2.43.69,3.77a.88.88,0,0,0,.56,1c.52.2.68-.3,1-.53a4,4,0,0,1,.65-.38,7.36,7.36,0,0,1-.25,5.5c-.3.76-.21,1.32.72,1.62C53.9,29.13,54.72,29.21,54.36,30.11ZM31.4,56c0,.25-.22.37-.56.39s-.93-.18-.95-.74c0-.25.21-.4.5-.39C30.93,55.26,31.39,55.42,31.4,56Zm-6.12-7.32c.2,0,.24.16.08.28s-.15,0-.21,0,0-.1-.06-.16S25.23,48.65,25.28,48.66ZM25,34.31a.39.39,0,0,1,.56-.26.45.45,0,0,1,.23.37c0,.25-.2.4-.5.41A.38.38,0,0,1,25,34.31Zm8.15-7.25a.41.41,0,0,1-.41.45A.55.55,0,0,1,32.1,27c0-.1.16-.27.28-.31A.61.61,0,0,1,33.17,27.06Zm-.59-2c-.1-.46.32-.62.69-.76a.43.43,0,0,1,.57.28c0,.43-.33.61-.71.74A.41.41,0,0,1,32.58,25.07Zm5.09-2a.6.6,0,0,1,.54-.63.49.49,0,0,1,.63.47c0,.31-.13.59-.52.63S37.67,23.39,37.67,23Zm3.73-1.34A1.42,1.42,0,0,1,42.61,21c.13,0,.26.15.37.26s0,.14,0,.23a1.46,1.46,0,0,1-1.32.54C41.54,22,41.36,21.74,41.4,21.69ZM54.58,28a1.8,1.8,0,0,1-1.14.78c-.54-.9-.51-.93.83-1.09a9.86,9.86,0,0,1,0-1.8c.07-.51.58-.7,1.15-.66.39,0,.77.37.59.57C55.35,26.42,55.83,27.63,54.58,28Zm1-3.88s.11-.08.17-.12.12.22.19.33l-.32.12A1.24,1.24,0,0,1,55.57,24.08ZM57,36.56a1.46,1.46,0,0,1-1,.95,1.93,1.93,0,0,1-.1.43c-.09.22-.31.4-.54.24s0-.38.15-.52a1.93,1.93,0,0,1,.44-.18,1.69,1.69,0,0,1,.27-1.31.49.49,0,0,1,.62-.22A.45.45,0,0,1,57,36.56ZM62.91,10a1.42,1.42,0,0,1,.39-.19,3.16,3.16,0,0,1,.12.37c0,.22.06.47-.23.56a.47.47,0,0,1-.38-.14A.42.42,0,0,1,62.91,10ZM61.08,25.68c.19-.8,1.41-1.42,2.2-2.1a.54.54,0,0,1,.45.06.48.48,0,0,1,.21.38,8.77,8.77,0,0,1-1.29,3.23c-1.13,2.21-2.47,4.35-3.76,6.5a1.12,1.12,0,0,1-1.16.72c-.48-.18-.75-.52-.63-.91a3,3,0,0,1,.7-1,7.39,7.39,0,0,0,2.31-4C60.25,27.65,60.84,26.71,61.08,25.68Zm-3-19.13a1.86,1.86,0,0,1,1.76,1c.64,1,.74,1.91.19,2-.94.16-1-.65-1.46-1.06a7.07,7.07,0,0,1-1.07-1.27C57.33,6.89,57.55,6.62,58.09,6.55ZM30.51,17.18h.26a1.84,1.84,0,0,1,.16-.41c.17-.25.43-.54.75-.27s0,.52-.28.67a2.51,2.51,0,0,1-.46.16l-.06.23a1,1,0,0,1-1.2.62c-.13,0-.33-.2-.32-.29C29.45,17.3,30,17.21,30.51,17.18Zm-1.55-6c.41,0,1.08-.59,1.19.23.06.49-.45.79-1,.85s-.95-.22-.89-.8a1.21,1.21,0,0,0,0-.19A3,3,0,0,1,29,11.16ZM25.64,28.54c1.09-1.48,2.74-2.57,3.68-4.15a2.36,2.36,0,0,1,.65-.72c1.73-1.15,2.89-2.78,4.35-4.15,1.13-1.07,2.73-1.64,3.72-2.85.21-.27.44-.44.09-.75-.76-.68-.41-1.26.3-1.72,2.28-1.51,4.22-3.45,7-4.38a.51.51,0,0,0,.22-.11C48.06,7.09,51.3,8,54.33,8.24c1.31.11,2.4,1,3.73,1.3.39.08.53.57.11.94s-.93.91-1.76.8a3.14,3.14,0,0,0-2.23.53c-1.56,1.09-3.47,1.66-5.08,2.68a24.36,24.36,0,0,0-4.85,1.42,17.23,17.23,0,0,0-7.5,4.3,2.28,2.28,0,0,1-.63.41c-3.76,2-6.08,5.17-8.81,8-.22.23-.34.54-.57.76-.95.95-1.88,1.29-2.1.82C24.25,29.34,25.24,29.07,25.64,28.54Zm-3.09,3.55c.08,0,.18,0,.21.06s0,.12,0,.19l-.22-.07ZM20.4,18.62c.3,0,.7-.2.79.2a.54.54,0,0,1-.57.61C19.92,19.33,20.31,18.93,20.4,18.62ZM17.75,34.54c0-.09.21-.15.33-.23.1.09.27.18.27.26a.34.34,0,0,1-.46.33C17.8,34.88,17.72,34.65,17.75,34.54Zm-3.23-.36c0-.12.21-.2.32-.29a.4.4,0,0,1,.25.53c0,.11-.23.29-.3.27A.37.37,0,0,1,14.52,34.18Zm-1.24-4L13.2,30h.16Zm1.28,10.76a2.1,2.1,0,0,1,0-1.34,4,4,0,0,0,.57-2.6c0-.15.28-.45.46-.47.43,0,.54.23.51.59s0,.91,0,1.36h0c0,.61,0,1.22,0,1.82a1.12,1.12,0,0,1-.73.89C15,41.33,14.63,41.3,14.56,40.91Zm5.88,72.88a.23.23,0,0,1-.1-.19c.11-.62.64-.44,1.06-.45C21.11,113.39,21.12,114,20.44,113.79Zm13.45,3.42a26,26,0,0,1-2,1.8c-.29.24-.82,0-.86-.22-.14-.88,1.27-2.45,2.22-2.54a.58.58,0,0,1,.7.53C34,116.92,34,117.12,33.89,117.21Zm1.81-.7a1.09,1.09,0,0,1-.15-.39s.11-.13.17-.13c.32,0,.33.23.32.45s0,.23,0,.34A1.56,1.56,0,0,1,35.7,116.51ZM56.06,85.69a33.29,33.29,0,0,1-5.33,7.08c-1.4,1.47-3,2.79-4.56,4.13a32.7,32.7,0,0,1-4.64,3.36c-2.66,1.59-5.3,3.23-7.81,5a48.42,48.42,0,0,1-7.82,4.18A6.65,6.65,0,0,0,22.72,112a1.88,1.88,0,0,1-1.22,1.06c-.29-.45-.58-.9-.85-1.35-.76-1.29-.72-1.37.8-2q2.88-1.11,5.72-2.28c.61-.25,1.29-.51,1.17-1.42a7.05,7.05,0,0,0-3.16.89,18.51,18.51,0,0,1-6.46,1.76,13.17,13.17,0,0,1-2.35,0c-1.84-.21-2.78-1.1-2.91-2.73a1.94,1.94,0,0,0-.44-1.48c-.83-.84-.77-.89.07-2,.09-.12.22-.26.22-.39.25-4.2,2.44-7.93,3.64-11.89a12.12,12.12,0,0,1,1.23-2.29,62.49,62.49,0,0,0,4.17-7.6,4.14,4.14,0,0,1,.84-1.15c1.59-1.88,3.21-3.74,4.8-5.62a3,3,0,0,0,.78-1.9c0-1.21.48-1.46,1.93-1.48a5,5,0,0,0,1.56-.08c1.58-.64,2.86-.09,4.14.63l5.28,3a3.68,3.68,0,0,0,1.1.59c2.43.47,4.45,1.72,6.68,2.58,1.19.46,2.31,1.07,3.44,1.64.54.28,1.09.67,1,1.26-.18.84.12,1.06,1,1,.5,0,.55.51.63.89.11.58-.26,1-.43,1.54s-.07.8.44,1C56.51,84.52,56.38,85.09,56.06,85.69ZM67.22,74.11a.86.86,0,0,1-1,.18c-1.67-.91-3.72-1.31-5.05-2.71l0,0-11.8-6.33a7.29,7.29,0,0,1-1.1-.62.73.73,0,0,1-.26-.6.76.76,0,0,1,.75-.54,3.85,3.85,0,0,1,2,.38c1.15.54,2.33,1,3.42,1.67a27.74,27.74,0,0,0,6,2.67,10.9,10.9,0,0,1,4.32,2.5c.85.77,1.67,1.55,2.48,2.35C67.42,73.39,67.61,73.75,67.22,74.11Z"/><path d="M49.15,20l-.06.06.09,0Z"/><path d="M68.07,25.44l0,0h0Z"/><path d="M64,33.4c-.18,2.12-1.45,3.88-2.24,5.79A3.65,3.65,0,0,0,64,36.42a3.81,3.81,0,0,1,.79-2.13,2.8,2.8,0,0,0,.69-3.08A2.82,2.82,0,0,0,64,33.4Z"/><path d="M65.52,31.21l0,0s0-.06,0-.09l0,.05A.64.64,0,0,1,65.52,31.21Z"/><path d="M14.52,21.84c.34-.6.72-1.17,1.09-1.76-.68,0-1.41,0-1.77.56-.6,1-1.57,1.78-1.82,2.92A3.24,3.24,0,0,0,14.52,21.84Z"/><path d="M60.73,36.58v.08l.05,0Z"/><path d="M58.53,39.7a7.86,7.86,0,0,1,1.27-1.16,1.83,1.83,0,0,0,.93-1.88C59.84,37.55,58.55,38.21,58.53,39.7Z"/><path d="M61.71,39.34l.06-.06,0-.09-.09.05Z"/><path d="M61.71,39.34l-2,2.32C61.67,41.57,61.71,40.46,61.71,39.34Z"/><path d="M57.36,47.22l-2.08,2.5A2.79,2.79,0,0,0,57.36,47.22Z"/><path d="M63.32,32l0,0,0,0h0S63.32,32,63.32,32Z"/><path d="M62.36,33.66c.36.15.54-.25.73-.46A1.38,1.38,0,0,0,63.32,32l-.93.93C62.14,33.18,62,33.5,62.36,33.66Z"/><path d="M15.7,20l-.06.05,0,0h.08A.28.28,0,0,0,15.7,20Z"/><path d="M16.51,18.79a.45.45,0,0,0-.63.18,7,7,0,0,0-.18,1,8,8,0,0,0,.95-.65C16.84,19.17,16.78,18.91,16.51,18.79Z"/><path d="M61.82,35.85a1.2,1.2,0,0,0-.43-.14c-.63,0-.81.36-.62.86a7.2,7.2,0,0,0,.85-.35C61.73,36.16,61.76,36,61.82,35.85Z"/><path d="M60.73,36.58l.05,0s0,0,0,0Z"/><path d="M53.42,52.19a5.24,5.24,0,0,0-.5.44c.23,0,.47,0,.7,0s.53-.15.41-.4S53.62,52,53.42,52.19Z"/><path d="M59.27,44.47c.29,0,.44-.2.42-.43s-.15-.31-.23-.3c-.35,0-.62.16-.55.51C58.92,44.34,59.14,44.4,59.27,44.47Z"/><path d="M16.35,120.19l.4.2.42-.14a1.09,1.09,0,0,0-.39-.19A1.24,1.24,0,0,0,16.35,120.19Z"/><path d="M49.05,51.12c.07,0,.14.05.2,0s.16-.07.16-.12-.08-.21-.25-.07S49.09,51.07,49.05,51.12Z"/><path d="M65.54,31.09a1.38,1.38,0,0,0,.32-1.45A1.52,1.52,0,0,0,65.54,31.09Z"/><path d="M65.86,29.64s0,0,0-.05v-.08l-.06,0S65.85,29.6,65.86,29.64Z"/><path d="M69.16,18.57l-.07,0,0,0,.07,0Z"/><path d="M69.25,18.27l-.09.3C69.32,18.52,69.57,18.5,69.25,18.27Z"/><polygon points="62.25 4.9 62.23 5.05 62.42 4.99 62.25 4.9"/><path d="M55.15,61.33h-.09l0,0C55.37,61.71,55.18,61.4,55.15,61.33Z"/><path d="M53.8,60.93l.1.09h0l0-.06Z"/><polygon points="46.03 55.48 46.12 55.41 45.98 55.44 45.93 55.57 46.03 55.48"/><path d="M52.78,52.72l.1-.06,0,0h-.06Z"/><path d="M50.24,49.56a1,1,0,0,1,.12-.2l-.17.14Z"/><path d="M50.62,49.12a.77.77,0,0,1,.18-.1.19.19,0,0,0,0-.08l-.06.05Z"/><path d="M50.36,49.36l.26-.24A.67.67,0,0,0,50.36,49.36Z"/><path d="M12,23.59l0,0s0,0,0-.06h0l-.48.54.06.05.46-.54Z"/><path d="M67.45,11.69l.1-.06h0l0,0Z"/><path d="M11.55,24.16l-.06-.05-.63.48s0,0,0,.06l.05,0Z"/><path d="M52.82,30.08c-.14-.15-.45-.33-.6-.29s0,.4-.07.54c-.42.71.48.74.69,1.11C53.34,31,53.23,30.52,52.82,30.08Z"/><path d="M52.88,31.5l0-.06s0,0,0,0Z"/><path d="M6.94,87.23c0,.17.2.22.35.11A1.27,1.27,0,0,0,7.51,87c-.13,0-.29-.13-.38-.09A.38.38,0,0,0,6.94,87.23Z"/><polygon points="8.06 85.73 8.29 85.68 8.11 85.57 8.06 85.73"/></g></g></svg>